<svg id="Layer_1" data-name="Layer 1" xmlns="http://www.w3.org/2000/svg" viewBox="0 0 191.43 37.84"><defs><style>.cls-1{fill:#001f51;}</style></defs><path class="cls-1" d="M93.57,1.88V21.6h-3.3V9.36L85.4,21.6H82.2L77.36,9.44V21.6H74.17V1.88h3.19l6.45,15.8,6.46-15.8Z"/><path class="cls-1" d="M109.77,17h-7.51l-1.62,4.59H97.19l7.13-19.72h3.46l7.13,19.72h-3.54Zm-1-2.86-2.75-7.89-2.79,7.89Z"/><path class="cls-1" d="M133.25,21.6H129.5l-3.27-7.45h-4.38V21.6H118.5V1.88h7.59a7.92,7.92,0,0,1,5.28,1.59A5.68,5.68,0,0,1,133.17,8a6.4,6.4,0,0,1-.93,3.51,5.22,5.22,0,0,1-2.64,2.1ZM129.63,8a3,3,0,0,0-.88-2.29,3.71,3.71,0,0,0-2.66-.84h-4.24V11.2h4.24a3.67,3.67,0,0,0,2.66-.86A3.11,3.11,0,0,0,129.63,8Z"/><path class="cls-1" d="M145.87,11.42l7.32,10.18h-4.32l-5.11-7.54-2.7,3.44v4.16h-3.38V1.88h3.38V12.25l8-10.37h4.33Z"/><path class="cls-1" d="M169.29,18.44V21.6H157.05V1.88h12.24V5.07H160.4v5.1h7.95v3H160.4v5.29Z"/><path class="cls-1" d="M176,1.88l4.68,8.56,4.67-8.56H189l-6.67,11.81V21.6h-3.38V13.69L172.18,1.88Z"/><path class="cls-1" d="M72.8,28.9h1V32h3.43V28.9h1V36h-1V32.81H73.75V36h-1Z"/><path class="cls-1" d="M84.14,35V36h-4.3V28.9h4.29v.92H80.8V32h3v.86h-3V35Z"/><path class="cls-1" d="M89.42,34.19h-3L85.83,36h-1l2.58-7.05h1L91.05,36H90Zm-.29-.81L88,30.05l-1.21,3.33Z"/><path class="cls-1" d="M95.85,35.08V36H92V28.9h1v6.18Z"/><path class="cls-1" d="M100.72,29.81H98.64V36h-1V29.81h-2.1V28.9h5.13Z"/><path class="cls-1" d="M101.73,28.9h1V32h3.43V28.9h1V36h-1V32.81h-3.43V36h-1Z"/><path class="cls-1" d="M113.76,31.15a2,2,0,0,0-.75-1.06,2.2,2.2,0,0,0-1.29-.37,2.33,2.33,0,0,0-1,.19,2,2,0,0,0-.74.56,2.35,2.35,0,0,0-.48.85,3.48,3.48,0,0,0-.17,1.1,3.56,3.56,0,0,0,.17,1.12,2.44,2.44,0,0,0,.48.85,2.25,2.25,0,0,0,.75.54,2.51,2.51,0,0,0,2.27-.18,2,2,0,0,0,.79-1l.91.39a2.78,2.78,0,0,1-1.16,1.4,3.55,3.55,0,0,1-1.87.49,3.16,3.16,0,0,1-1.35-.25,2.86,2.86,0,0,1-1.07-.74,3.41,3.41,0,0,1-.7-1.15,4.62,4.62,0,0,1,0-3,3.28,3.28,0,0,1,.69-1.16,3,3,0,0,1,1.07-.74,3.38,3.38,0,0,1,1.37-.27,3.15,3.15,0,0,1,1.9.57,2.81,2.81,0,0,1,1.06,1.49Z"/><path class="cls-1" d="M119.41,34.19h-3L115.82,36h-1l2.58-7.05h1L121,36h-1Zm-.29-.81L118,30.05l-1.21,3.33Z"/><path class="cls-1" d="M127.13,36h-1.08l-1.26-2.8H123V36H122V28.9h2.69a2.64,2.64,0,0,1,1.8.56,2,2,0,0,1,.62,1.56,2.16,2.16,0,0,1-.36,1.27,1.79,1.79,0,0,1-1,.71Zm-1-4.92a1.2,1.2,0,0,0-.37-.93,1.49,1.49,0,0,0-1-.33H123v2.52h1.74a1.47,1.47,0,0,0,1.06-.34A1.24,1.24,0,0,0,126.11,31Z"/><path class="cls-1" d="M132.72,35V36h-4.29V28.9h4.28v.92h-3.33V32h3v.86h-3V35Z"/><path class="cls-1" d="M138.81,28.77a2.57,2.57,0,0,1,1.59.47,1.9,1.9,0,0,1,.75,1.23l-.9.24a1.22,1.22,0,0,0-.49-.78,1.62,1.62,0,0,0-1-.28,1.49,1.49,0,0,0-1,.31,1,1,0,0,0-.38.81c0,.53.32.88,1,1l1.18.3a2.57,2.57,0,0,1,1.31.71,1.8,1.8,0,0,1,.43,1.2,2,2,0,0,1-.17.82,1.86,1.86,0,0,1-.49.65,2.28,2.28,0,0,1-.77.42,3.22,3.22,0,0,1-1,.15,3,3,0,0,1-1.69-.45,1.89,1.89,0,0,1-.8-1.29l.91-.24a1.14,1.14,0,0,0,.51.81,1.9,1.9,0,0,0,1.09.29,1.73,1.73,0,0,0,1.08-.3.94.94,0,0,0,.39-.81c0-.55-.32-.9-1-1.06l-1.17-.29a2.34,2.34,0,0,1-1.31-.72,1.8,1.8,0,0,1-.43-1.2,1.9,1.9,0,0,1,.18-.83,2,2,0,0,1,.47-.64,2.4,2.4,0,0,1,.74-.41A2.93,2.93,0,0,1,138.81,28.77Z"/><path class="cls-1" d="M145.48,28.77a3.37,3.37,0,0,1,1.36.27,3.07,3.07,0,0,1,1.08.76,3.48,3.48,0,0,1,.71,1.16,4.56,4.56,0,0,1,0,2.92,3.54,3.54,0,0,1-.71,1.15,3.09,3.09,0,0,1-1.08.77,3.28,3.28,0,0,1-1.37.26,3.38,3.38,0,0,1-1.37-.27A3.12,3.12,0,0,1,143,35a3.24,3.24,0,0,1-.69-1.15,4.3,4.3,0,0,1-.24-1.46,3.86,3.86,0,0,1,.24-1.46,3.16,3.16,0,0,1,.7-1.16,3.12,3.12,0,0,1,1.07-.76A3.42,3.42,0,0,1,145.48,28.77Zm0,6.36a2.32,2.32,0,0,0,1-.2,2.18,2.18,0,0,0,.76-.55,2.35,2.35,0,0,0,.48-.85,3.51,3.51,0,0,0,0-2.22,2.35,2.35,0,0,0-.48-.85,2,2,0,0,0-.75-.55,2.34,2.34,0,0,0-1-.2,2.42,2.42,0,0,0-1,.2,2,2,0,0,0-.75.55,2.51,2.51,0,0,0-.48.85,3.71,3.71,0,0,0,0,2.22,2.51,2.51,0,0,0,.48.85,2.15,2.15,0,0,0,.75.55A2.42,2.42,0,0,0,145.48,35.13Z"/><path class="cls-1" d="M154,35.08V36h-3.83V28.9h1v6.18Z"/><path class="cls-1" d="M154.81,28.9h1v4.55a1.61,1.61,0,0,0,.51,1.3,2,2,0,0,0,1.26.41,1.88,1.88,0,0,0,1.26-.44,1.59,1.59,0,0,0,.51-1.27V28.9h1v4.57a2.65,2.65,0,0,1-.22,1.13,2.45,2.45,0,0,1-.6.81,2.51,2.51,0,0,1-.87.5,3.3,3.3,0,0,1-1.05.16,3.22,3.22,0,0,1-1-.16,2.68,2.68,0,0,1-.88-.48,2.37,2.37,0,0,1-.61-.81,2.74,2.74,0,0,1-.23-1.15Z"/><path class="cls-1" d="M166.34,29.81h-2.08V36h-.95V29.81h-2.1V28.9h5.13Z"/><path class="cls-1" d="M167.35,36V28.9h1V36Z"/><path class="cls-1" d="M172.94,28.77a3.4,3.4,0,0,1,1.36.27,3.26,3.26,0,0,1,1.08.76,3.46,3.46,0,0,1,.7,1.16,4.39,4.39,0,0,1,0,2.92,3.51,3.51,0,0,1-.7,1.15,3.21,3.21,0,0,1-2.45,1,3.38,3.38,0,0,1-1.37-.27,3,3,0,0,1-1.07-.76,3.24,3.24,0,0,1-.69-1.15,4.47,4.47,0,0,1,0-2.92,3.46,3.46,0,0,1,.7-1.16,3.26,3.26,0,0,1,1.08-.76A3.42,3.42,0,0,1,172.94,28.77Zm0,6.36a2.32,2.32,0,0,0,1-.2,2.28,2.28,0,0,0,.76-.55,2.35,2.35,0,0,0,.48-.85,3.71,3.71,0,0,0,0-2.22,2.35,2.35,0,0,0-.48-.85,2,2,0,0,0-.75-.55,2.48,2.48,0,0,0-1.95,0,2,2,0,0,0-.75.55,2.35,2.35,0,0,0-.48.85,3.71,3.71,0,0,0,0,2.22,2.35,2.35,0,0,0,.48.85,2.15,2.15,0,0,0,.75.55A2.38,2.38,0,0,0,172.94,35.13Z"/><path class="cls-1" d="M183.08,28.9V36h-1l-3.6-5.5V36h-1V28.9h1l3.6,5.5V28.9Z"/><path class="cls-1" d="M186.73,28.77a2.57,2.57,0,0,1,1.59.47,1.9,1.9,0,0,1,.75,1.23l-.91.24a1.17,1.17,0,0,0-.48-.78,1.62,1.62,0,0,0-1-.28,1.51,1.51,0,0,0-1,.31,1,1,0,0,0-.37.81c0,.53.32.88,1,1l1.18.3a2.57,2.57,0,0,1,1.31.71,1.8,1.8,0,0,1,.43,1.2,2,2,0,0,1-.17.82,1.86,1.86,0,0,1-.49.65,2.28,2.28,0,0,1-.77.42,3.22,3.22,0,0,1-1,.15,3,3,0,0,1-1.69-.45,1.89,1.89,0,0,1-.8-1.29l.91-.24a1.13,1.13,0,0,0,.5.81,2,2,0,0,0,1.1.29,1.75,1.75,0,0,0,1.08-.3.94.94,0,0,0,.39-.81c0-.55-.32-.9-1-1.06l-1.17-.29a2.34,2.34,0,0,1-1.31-.72,1.8,1.8,0,0,1-.43-1.2,2.05,2.05,0,0,1,.17-.83,2.15,2.15,0,0,1,.48-.64,2.4,2.4,0,0,1,.74-.41A2.93,2.93,0,0,1,186.73,28.77Z"/><path class="cls-1" d="M10.6,5.94h7.64L37.56,35.86h18.3L51.1,1.77H37.55L29,15,20.52,1.77H7l-1.4,10L2.21,35.86H20.52l4.87-7.54L22.9,24.47l-4.66,7.21H7L9.74,12.09Zm29.22,0h7.65l3.59,25.74H39.84L31.52,18.8Z"/></svg>